<svg xmlns="http://www.w3.org/2000/svg" style="display: none;">
  <!-- Facebook -->
  <symbol id="facebook" viewBox="0 0 24 24">
    <path d="M22.675 0H1.325C.593 0 0 .593 0 1.326v21.348C0 23.406.593 24 1.325 
    24H12.82v-9.294H9.692v-3.622h3.128V8.413c0-3.1 1.894-4.788 4.66-4.788 
    1.325 0 2.463.099 2.795.143v3.24l-1.918.001c-1.504 0-1.796.715-1.796 
    1.763v2.31h3.587l-.467 3.622h-3.12V24h6.116C23.407 24 24 
    23.406 24 22.674V1.326C24 .593 23.407 0 22.675 0z"/>
  </symbol>

  <!-- Instagram -->
  <symbol id="instagram" viewBox="0 0 24 24">
    <path d="M12 2.163c3.204 0 3.584.012 4.85.07 1.366.062 2.633.35 
    3.608 1.325.975.975 1.263 2.242 1.325 3.608.058 1.266.07 1.646.07 
    4.85s-.012 3.584-.07 4.85c-.062 1.366-.35 2.633-1.325 
    3.608-.975.975-2.242 1.263-3.608 
    1.325-1.266.058-1.646.07-4.85.07s-3.584-.012-4.85-.07c-1.366-.062-2.633-.35-3.608-1.325-.975-.975-1.263-2.242-1.325-3.608C2.175 
    15.747 2.163 15.367 2.163 12s.012-3.584.07-4.85c.062-1.366.35-2.633 
    1.325-3.608.975-.975 2.242-1.263 3.608-1.325C8.416 2.175 8.796 
    2.163 12 2.163zm0-2.163C8.741 0 8.332.014 7.052.072 5.78.13 
    4.65.443 3.678 1.415 2.706 2.387 2.393 3.517 2.335 
    4.788.014 8.332 0 8.741 0 12s.014 3.668.072 4.948c.058 1.271.371 
    2.401 1.343 3.373.972.972 2.102 1.285 3.373 
    1.343C8.332 23.986 8.741 24 12 24s3.668-.014 4.948-.072c1.271-.058 
    2.401-.371 3.373-1.343.972-.972 1.285-2.102 
    1.343-3.373.058-1.28.072-1.689.072-4.948s-.014-3.668-.072-4.948c-.058-1.271-.371-2.401-1.343-3.373-.972-.972-2.102-1.285-3.373-1.343C15.668.014 15.259 
    0 12 0z"/>
    <path d="M12 5.838a6.162 6.162 0 1 0 0 12.324 
    6.162 6.162 0 0 0 0-12.324zm0 10.162a3.999 
    3.999 0 1 1 0-7.998 3.999 3.999 0 0 1 0 7.998z"/>
    <circle cx="18.406" cy="5.594" r="1.44"/>
  </symbol>

  <!-- YouTube -->
  <symbol id="youtube" viewBox="0 0 24 24">
    <path d="M23.498 6.186a2.999 2.999 0 0 0-2.112-2.117C19.71 
    3.5 12 3.5 12 3.5s-7.71 0-9.386.569A2.999 2.999 0 0 0 
    .502 6.186 31.58 31.58 0 0 0 0 12c0 1.983.175 3.928.502 
    5.814a2.999 2.999 0 0 0 2.112 2.117C4.29 
    20.5 12 20.5 12 20.5s7.71 0 9.386-.569a2.999 2.999 0 0 0 
    2.112-2.117C23.825 15.928 24 13.983 24 12s-.175-3.928-.502-5.814zM9.75 
    15.02V8.98l6.5 3.02-6.5 3.02z"/>
  </symbol>
</svg>
