<svg xmlns="http://www.w3.org/2000/svg" style="display: none;">
  <!-- Facebook -->
  <symbol id="facebook" viewBox="0 0 24 24">
    <path d="M22.675 0H1.325C.593 0 0 .593 0 1.326v21.348C0 23.406.593 24 1.325 
    24H12.82v-9.294H9.692v-3.622h3.128V8.413c0-3.1 1.894-4.788 4.66-4.788 
    1.325 0 2.463.099 2.795.143v3.24l-1.918.001c-1.504 0-1.796.715-1.796 
    1.763v2.31h3.587l-.467 3.622h-3.12V24h6.116C23.407 24 24 
    23.406 24 22.674V1.326C24 .593 23.407 0 22.675 0z"/>
  </symbol>

  <!-- Instagram -->
  <symbol id="instagram" viewBox="0 0 24 24">
    <path d="M12 2.163c3.204 0 3.584.012 4.85.07 1.366.062 2.633.35 
    3.608 1.325.975.975 1.263 2.242 1.325 3.608.058 1.266.07 1.646.07 
    4.85s-.012 3.584-.07 4.85c-.062 1.366-.35 2.633-1.325 
    3.608-.975.975-2.242 1.263-3.608 
    1.325-1.266.058-1.646.07-4.85.07s-3.584-.012-4.85-.07c-1.366-.062-2.633-.35-3.608-1.325-.975-.975-1.263-2.242-1.325-3.608C2.175 
    15.747 2.163 15.367 2.163 12s.012-3.584.07-4.85c.062-1.366.35-2.633 
    1.325-3.608.975-.975 2.242-1.263 3.608-1.325C8.416 2.175 8.796 
    2.163 12 2.163zm0-2.163C8.741 0 8.332.014 7.052.072 5.78.13 
    4.65.443 3.678 1.415 2.706 2.387 2.393 3.517 2.335 
    4.788.014 8.332 0 8.741 0 12s.014 3.668.072 4.948c.058 1.271.371 
    2.401 1.343 3.373.972.972 2.102 1.285 3.373 
    1.343C8.332 23.986 8.741 24 12 24s3.668-.014 4.948-.072c1.271-.058 
    2.401-.371 3.373-1.343.972-.972 1.285-2.102 
    1.343-3.373.058-1.28.072-1.689.072-4.948s-.014-3.668-.072-4.948c-.058-1.271-.371-2.401-1.343-3.373-.972-.972-2.102-1.285-3.373-1.343C15.668.014 15.259 
    0 12 0z"/>
    <path d="M12 5.838a6.162 6.162 0 1 0 0 12.324 
    6.162 6.162 0 0 0 0-12.324zm0 10.162a3.999 
    3.999 0 1 1 0-7.998 3.999 3.999 0 0 1 0 7.998z"/>
    <circle cx="18.406" cy="5.594" r="1.44"/>
  </symbol>

  <!-- YouTube -->
  <symbol id="youtube" viewBox="0 0 24 24">
    <path d="M23.498 6.186a2.999 2.999 0 0 0-2.112-2.117C19.71 
    3.5 12 3.5 12 3.5s-7.71 0-9.386.569A2.999 2.999 0 0 0 
    .502 6.186 31.58 31.58 0 0 0 0 12c0 1.983.175 3.928.502 
    5.814a2.999 2.999 0 0 0 2.112 2.117C4.29 
    20.5 12 20.5 12 20.5s7.71 0 9.386-.569a2.999 2.999 0 0 0 
    2.112-2.117C23.825 15.928 24 13.983 24 12s-.175-3.928-.502-5.814zM9.75 
    15.02V8.98l6.5 3.02-6.5 3.02z"/>
  </symbol>

  <!-- Logo -->
  <symbol id="logo" viewBox="0 0 132 24">
    <path d="M4.98 13.28L0 5H2.98L6.32 10.74H6.36L9.7 5H12.68L7.7 13.28V19H4.98V13.28Z" fill="#242424"/>
    <path d="M12.6703 16.7V7.3L14.9703 5H22.1703L24.4703 7.3V16.7L22.1703 19H14.9703L12.6703 16.7ZM20.7303 16.68L21.7503 15.66V8.34L20.7303 7.32H16.4103L15.3903 8.34V15.66L16.4103 16.68H20.7303Z" fill="#242424"/>
    <path d="M26.3742 16.6V5H29.0942V15.66L30.1142 16.68H34.0342L35.0542 15.66V5H37.7742V16.6L35.3742 19H28.7742L26.3742 16.6Z" fill="#242424"/>
    <path d="M50.8781 14.36V19H48.1581V14.98L46.9581 13.64H42.5981V19H39.8781V5H48.6581L50.7981 7.16V11.4L49.4381 12.78L50.8781 14.36ZM42.5981 11.4H47.4181L48.1181 10.7V7.98L47.4181 7.28H42.5981V11.4Z" fill="#242424"/>
    <path d="M57.8234 5H67.9434V7.3H60.5434V10.84H67.3634V13.1H60.5434V16.7H67.9434V19H57.8234V5Z" fill="#242424"/>
    <path d="M69.4523 5H71.8923L78.1323 14.5H78.1723V5H80.7923V19H78.3523L72.1123 9.52H72.0723V19H69.4523V5Z" fill="#242424"/>
    <path d="M82.8977 5H93.0177V7.3H85.6177V10.84H92.4377V13.1H85.6177V16.7H93.0177V19H82.8977V5Z" fill="#242424"/>
    <path d="M105.527 14.36V19H102.807V14.98L101.607 13.64H97.2466V19H94.5266V5H103.307L105.447 7.16V11.4L104.087 12.78L105.527 14.36ZM97.2466 11.4H102.067L102.767 10.7V7.98L102.067 7.28H97.2466V11.4Z" fill="#242424"/>
    <path d="M107.323 16.7V7.3L109.623 5H116.583L118.843 7.26V9.4H116.123V8.26L115.183 7.32H111.063L110.043 8.34V15.66L111.063 16.68H115.223L116.203 15.7V13.52H113.203V11.2H118.843V16.7L116.543 19H109.623L107.323 16.7Z" fill="#242424"/>
    <path d="M123.828 13.28L118.848 5H121.828L125.168 10.74H125.208L128.548 5H131.528L126.548 13.28V19H123.828V13.28Z" fill="#242424"/>
  </symbol><!-- Bin -->
  <symbol id="bin" viewBox="0 0 20 20">
    <path d="M13.3333 4.99996V4.33329C13.3333 3.39987...Z" stroke="#242424" stroke-width="1.5" stroke-linecap="round" stroke-linejoin="round"/>
  </symbol>
  
  <!-- Heart -->
  <symbol id="heart" viewBox="0 0 24 24">
    <path d="M12 21.35l-1.45-1.32C5.4 15.36 2 12.28 2 8.5 
    2 5.42 4.42 3 7.5 3c1.74 0 3.41 0.81 
    4.5 2.09C13.09 3.81 14.76 3 16.5 3 
    19.58 3 22 5.42 22 8.5c0 3.78-3.4 6.86-8.55 
    11.54L12 21.35z" fill="#242424"/>
  </symbol>
  
  <!-- Search -->
  <symbol id="search" viewBox="0 0 18 18">
    <path d="M8.25 14.25C11.5637 14.25...Z" stroke="#242424" stroke-width="1.5" stroke-linecap="round" stroke-linejoin="round"/>
  </symbol>
  
  <!-- Close -->
  <symbol id="close" viewBox="0 0 18 18">
    <path d="M12.75 5.25L5.25 12.75M5.25 5.25L12.75 12.75" stroke="#242424" stroke-width="1.5" stroke-linecap="round" stroke-linejoin="round"/>
  </symbol>
  
  <!-- Arrow (Up) -->
  <symbol id="arrow" viewBox="0 0 47 48">
    <path fill-rule="evenodd" clip-rule="evenodd" d="M24.6192 11.4778L24.6192 37.0059L21.9033 37.0059...Z" fill="#F4F4F4" stroke="#F4F4F4" stroke-width="0.3"/>
  </symbol>
  
  <!-- Quotes -->
  <symbol id="quotes" viewBox="0 0 24 24">
    <path d="M6.15077 13.1014C7.31014 12.642...Z" fill="#F4F4F4"/>
  </symbol>
  
  <!-- Star -->
  <symbol id="star" viewBox="0 0 14 13">
    <path d="M6.04894 0.927052C6.3483 0.0057416...Z" fill="#EEA10C"/>
  </symbol>
  
  <!-- Weights -->
  <symbol id="weights" viewBox="0 0 20 20">
    <path d="M4.6 5.71429H3.4C3.0675 5.71429...Z" fill="#242424"/>
  </symbol>
  
  <!-- Man -->
  <symbol id="man" viewBox="0 0 32 32">
    <circle cx="16" cy="16" r="16" fill="#F4F4F4" fill-opacity="0.2"/>
    <path d="M24.7293 11.907C24.4611 11.594...Z" fill="#F4F4F4"/>
    <path d="M20.9191 10.1263C22.0853 10.1263...Z" fill="#F4F4F4"/>
  </symbol>
  



</svg>
